<svg xmlns="http://www.w3.org/2000/svg" viewBox="0 0 52.34 59"><defs><style>.cls-1{fill:#ca9e66;}</style></defs><g id="Calque_2" data-name="Calque 2"><g id="Calque_1-2" data-name="Calque 1"><path class="cls-1" d="M28.94,0a3.82,3.82,0,0,1,2.21,1.71.49.49,0,0,0,.39.14,2.7,2.7,0,0,1,2.2.95,4.62,4.62,0,0,0,2.33,1.43,8.39,8.39,0,0,1,5.87,8c0,1.8,0,3.6,0,5.48h8.14A2,2,0,0,1,52.34,20v4c0,.69-.3,1.07-.84,1.08s-.89-.38-.89-1.1c0-1.3,0-2.61,0-3.91,0-.33,0-.56-.46-.56H41.94c0,.75,0,1.48,0,2.19a1.44,1.44,0,0,1-.42.93.81.81,0,0,1-1.28-.73c0-.77,0-1.53,0-2.34H26.75c0,.74,0,1.5,0,2.26,0,.58-.3.91-.79.94a.83.83,0,0,1-.93-.92c0-.75,0-1.5,0-2.29a4.92,4.92,0,0,0-.52,0c-2.49,0-5,0-7.49,0-.5,0-.66.14-.66.65q0,18,0,36.07c0,.79.29,1.08,1.07,1.08h2.38v-.71c0-5.14,0-10.29,0-15.44a2.38,2.38,0,0,1,1.52-2.46.74.74,0,0,0,.28-.58c0-1.8,0-3.61,0-5.41a6.06,6.06,0,0,1,1.73-4.44.86.86,0,0,0,.1-.52c0-1-.13-2-.05-3a1.17,1.17,0,0,1,1.25-1c1.86,0,3.72,0,5.59,0a1.32,1.32,0,0,1,1.34,1.37c0,.93-.14,1.85-.21,2.78a.58.58,0,0,0,.13.34c.47.75,1,1.48,1.42,2.27.18.34.4.29.65.29H45.67a.79.79,0,0,1,.82.79.78.78,0,0,1-.76.9c-.48,0-.6.25-.73.61-.58,1.63-1.18,3.25-1.77,4.87-.06.18-.11.36-.2.64h1.69A2.22,2.22,0,0,1,47.15,41V57.26c.93,0,1.82,0,2.72,0a.78.78,0,0,0,.73-.77,5.42,5.42,0,0,0,0-.57V28.48c0-.73.31-1.1.88-1.09s.85.37.85,1.07v27.6a2.63,2.63,0,0,1-3,2.94H17.57a2.62,2.62,0,0,1-2.94-2.94V20.11A2.06,2.06,0,0,1,17,17.75h8a2.14,2.14,0,0,0-.49-1.93,3.8,3.8,0,0,0-3.3-1.35c-3.6.1-7.22,0-10.83,0a2.31,2.31,0,0,1-.74-.09.75.75,0,0,1-.53-.85.76.76,0,0,1,.66-.76,3.29,3.29,0,0,1,.63,0h9.19v-11c-.19,0-.37,0-.56,0-5.51,0-11,0-16.54,0-.59,0-.74.18-.74.75q0,4.81,0,9.62c0,.55.18.71.7.69,1.09,0,2.19,0,3.28,0,.68,0,1,.29,1,.83s-.34.89-1,.9c-1.21,0-2.42,0-3.63,0A2,2,0,0,1,0,12.41C0,9,0,5.53,0,2.09A2.25,2.25,0,0,1,1.5,0Zm.27,40.35a.94.94,0,0,0-.16,0H22.19c-.51,0-.66.26-.65.73,0,2.15,0,4.3,0,6.45a4,4,0,0,0,.06.45H38.4a.79.79,0,0,1,.83.79.82.82,0,0,1-.76.91,6.18,6.18,0,0,1-.73,0c-.85,2.32-2.24,3.42-4.27,3.41S30.1,52,29.21,49.7H21.59v7.54H45.38V49.66H42.57a.85.85,0,0,1-1-.7c-.12-.6.25-1,.92-1,.95,0,1.91,0,2.9,0V40.84c0-.43-.29-.54-.66-.53h-7c-.95,2.4-2.25,3.42-4.29,3.42S30.16,42.71,29.21,40.35ZM40.14,17.73c0-2.14.09-4.23,0-6.31a6.13,6.13,0,0,0-2.66-4.59c-.12-.09-.27-.16-.44-.26,0,1.95-.46,2.57-2.23,3.19a.59.59,0,0,0-.29.35,2.59,2.59,0,0,1-2.15,2.12.44.44,0,0,0-.3.26,2.72,2.72,0,0,1-2.45,2.29,2.7,2.7,0,0,1-2.51,2.47c-.14,0-.25.23-.38.36l.13.12ZM21.35,6.21c.68-.63,1.27-1.2,1.9-1.73a1.51,1.51,0,0,1,.8-.39c.82,0,1.65,0,2.47,0,.63,0,.91.35.92,1s0,1.11,0,1.67A1.92,1.92,0,0,0,29.1,8.67c.5.07.71-.11.7-.62,0-1.56,0-3.11,0-4.66A1.51,1.51,0,0,0,28.1,1.73c-2.09,0-4.18,0-6.28,0h-.47Zm22,26.31h-14c.18.51.37,1,.5,1.44a.58.58,0,0,0,.67.46c1.33,0,2.65,0,4,0h7.65a.78.78,0,0,0,.59-.28A14.85,14.85,0,0,0,43.36,32.52ZM30.7,36.17c.28.78.52,1.49.8,2.17a.59.59,0,0,0,.45.23h8.81c.15,0,.39-.06.44-.16.29-.72.54-1.45.83-2.24Zm-2.93-2.83c-.09-.56-.25-.86-.85-.9a.82.82,0,0,1-.49-1.37,1.37,1.37,0,0,1,.82-.3c1.28,0,2.55,0,3.9,0a2.21,2.21,0,0,0-.14-.32A3.09,3.09,0,0,0,29,28.64a7,7,0,0,0-3.33.15,3.91,3.91,0,0,0-2.18,4.55Zm-4.38,5.18H29.7c-.38-1-.75-2-1.07-3a.58.58,0,0,0-.67-.45c-1.36,0-2.72,0-4.08,0-.17,0-.33,0-.49,0ZM25.66,5.7a4.21,4.21,0,0,0-1.56.38,31.81,31.81,0,0,0-2.52,2.28c-.1.1-.24.24-.24.36,0,1.34,0,2.68,0,4.06l.54,0c-.13-1.75.41-2.53,2.22-3.25.16-1.06.37-1.68,1-2S25.75,6.48,25.66,5.7ZM27,15.62c.27-.21.65-.37.71-.61a1.27,1.27,0,0,0-.18-1c-.73-.83-1.54-1.59-2.33-2.37a.92.92,0,0,0-1.33-.12.9.9,0,0,0,.06,1.37c.77.78,1.54,1.56,2.32,2.31A4.49,4.49,0,0,0,27,15.62ZM31.53,3.44c0,.65,0,1.09,0,1.52a1.16,1.16,0,0,0,.42,1c.59.55,1.14,1.14,1.71,1.7s1,.51,1.37.13a.92.92,0,0,0-.09-1.37c-.82-.84-1.65-1.67-2.49-2.48A4.66,4.66,0,0,0,31.53,3.44ZM26.26,8.72c-.45.38-.59.84-.23,1.23.93,1,1.91,2,2.93,2.91a1,1,0,0,0,1-.06c.22-.17.41-.74.29-.92-.38-.55-.83-1.25-1.4-1.44A4.66,4.66,0,0,1,26.26,8.72ZM25,25.43v1.34h4.77V25.43ZM35.83,49.71H31.1a2.51,2.51,0,0,0,2.42,1.66A2.39,2.39,0,0,0,35.83,49.71Zm0-9.35H31.11A2.47,2.47,0,0,0,33.53,42,2.36,2.36,0,0,0,35.82,40.36ZM31.7,8.08,31,10c.09.09.19.2.31.3a.88.88,0,0,0,1.24,0,.87.87,0,0,0,0-1.28C32.26,8.69,32,8.38,31.7,8.08Z"/></g></g></svg>