<svg xmlns="http://www.w3.org/2000/svg" viewBox="0 0 45.66 34.43"><defs><style>.cls-1{fill:#ca9e66;}</style></defs><g id="Calque_2" data-name="Calque 2"><g id="Calque_1-2" data-name="Calque 1"><g id="Groupe_21" data-name="Groupe 21"><path id="Tracé_218" data-name="Tracé 218" class="cls-1" d="M44,24.58a7.34,7.34,0,0,0,1.54-3.65l0-.1a.36.36,0,0,0,0-.09V19l-.26-1.28-.63-3.05c-.16-.78-.31-1.57-.46-2.33-.35-1.74-.71-3.54-1.12-5.3a9.21,9.21,0,0,0-9-7.06h-22a9.26,9.26,0,0,0-9,7.24C2.43,10.57,1.72,14,1,17.23.76,18.49.49,19.75.23,21c-.07.29-.11.58-.16.87,0,.13,0,.26-.07.39v2c.06.27.12.56.17.83A14.52,14.52,0,0,0,.63,26.9a11.06,11.06,0,0,0,10.5,7.51H40.85a4.4,4.4,0,0,0,4.73-3.6h0l.08-.09V29.41l0,0c0-.12-.07-.23-.1-.35a7.58,7.58,0,0,0-.28-.8,4.44,4.44,0,0,0-2.42-2.32l.15-.16C43.35,25.37,43.71,25,44,24.58Zm-2.69,7.74h-30A9.27,9.27,0,0,1,2.56,26,9,9,0,0,1,9.85,14.24a11.27,11.27,0,0,1,1.54-.1H37.67a5.71,5.71,0,1,1,.17,11.41H11.34a2.34,2.34,0,0,1-2.48-2.18v-.06a2.4,2.4,0,0,1,2.37-2.43H37.5a3.53,3.53,0,0,0,.46,0,1,1,0,0,0,.11-2,2.74,2.74,0,0,0-.5,0H11.51a4.55,4.55,0,0,0-4.66,3.63,4.43,4.43,0,0,0,4,5.21h30a2.58,2.58,0,0,1,1.93.67,2.19,2.19,0,0,1,.62,2.46,2.27,2.27,0,0,1-2.07,1.55ZM37.81,12H11.24A10.91,10.91,0,0,0,3.65,15c.09-.44.19-.88.28-1.31l.39-1.83c.29-1.39.59-2.82.92-4.22a7.13,7.13,0,0,1,7-5.51H34.24a7.24,7.24,0,0,1,7,5.8c.31,1.44.61,2.9.89,4.32.09.43.18.86.26,1.29A7.58,7.58,0,0,0,37.81,12Z"/><path id="Tracé_219" data-name="Tracé 219" class="cls-1" d="M18.21,3H14.14c-.69,0-1.4,0-2.1,0A6.39,6.39,0,0,0,6.1,7.85,1.07,1.07,0,0,0,6.75,9.2l.07,0a1.35,1.35,0,0,0,.29,0,1.07,1.07,0,0,0,1-.86,4.24,4.24,0,0,1,4.42-3.3h5.64a1.05,1.05,0,0,0,1.11-.69,1,1,0,0,0-.1-.92A1.18,1.18,0,0,0,18.21,3Z"/><path id="Tracé_220" data-name="Tracé 220" class="cls-1" d="M21.35,3a1,1,0,0,0-.74.29,1,1,0,0,0-.32.74,1,1,0,0,0,1,1h.06a1,1,0,0,0,.7-.27,1,1,0,0,0,.33-.72,1.06,1.06,0,0,0-.29-.76A1,1,0,0,0,21.35,3Z"/></g></g></g></svg>