<svg xmlns="http://www.w3.org/2000/svg" viewBox="0 0 46.8 40.93"><defs><style>.cls-1{fill:#ca9e66;}</style></defs><g id="Calque_2" data-name="Calque 2"><g id="Calque_1-2" data-name="Calque 1"><path class="cls-1" d="M46.8,39.75v.55a1.33,1.33,0,0,1-1.3.63H1A1,1,0,0,1,0,40a.92.92,0,0,1,1-.9h1.6c0-.16,0-.24,0-.33,0-5.85,0-11.7,0-17.55a.71.71,0,0,0-.28-.5A5.44,5.44,0,0,1,0,16.12V11.6A3.15,3.15,0,0,1,2.33,8.52a1.23,1.23,0,0,0,.58-.37C4.71,5.9,6.52,3.66,8.29,1.39A3.41,3.41,0,0,1,11.16,0H35.65A3.42,3.42,0,0,1,38.5,1.36C40.24,3.55,42,5.72,43.77,7.9a2,2,0,0,0,1,.72,2.89,2.89,0,0,1,1.86,1.87c.06.16.12.31.17.47V16.9c0,.1-.07.2-.09.3a5.26,5.26,0,0,1-2.24,3.47.68.68,0,0,0-.34.63c0,1.52,0,3,0,4.57,0,.72-.36,1.17-.93,1.16s-.89-.43-.9-1.14v-4.3a5.61,5.61,0,0,1-5.42-2.32,5.45,5.45,0,0,1-9,0,5.46,5.46,0,0,1-9,0,5.48,5.48,0,0,1-9,0A5.56,5.56,0,0,1,4.53,21.6V39.07H7.41V25.79c0-.9.3-1.21,1.2-1.21h7.45c1,0,1.23.28,1.23,1.22V39.07h25v-.52c0-1.44,0-2.89,0-4.34a.88.88,0,0,1,1-1,.92.92,0,0,1,.77,1c0,1.43,0,2.86,0,4.29,0,.17,0,.33,0,.51.52,0,1,0,1.45,0A1.08,1.08,0,0,1,46.8,39.75Zm-31.37-.68V26.45H9.27V39.07ZM26.85,8.4c-.27-2.12-.54-4.17-.8-6.22,0-.27-.13-.36-.4-.35-.55,0-1.1,0-1.64,0H20.72L19.94,8.4Zm1-6.56.85,6.54h6.63C34.16,6.23,33,4.13,31.87,2a.39.39,0,0,0-.27-.2C30.37,1.83,29.14,1.84,27.85,1.84ZM18.1,8.4l.78-6.57c-1.2,0-2.31,0-3.42,0a.62.62,0,0,0-.64.37c-1,1.93-2.1,3.85-3.15,5.77-.07.13-.14.26-.22.43ZM18,15.46H10.82a3.8,3.8,0,0,0,1.66,3.78,3.37,3.37,0,0,0,3.76.06A3.72,3.72,0,0,0,18,15.46Zm10.85,0a3.68,3.68,0,0,0,1.94,3.95A3.37,3.37,0,0,0,34.62,19,3.71,3.71,0,0,0,36,15.46Zm-9,0a3.64,3.64,0,0,0,1.88,3.93,3.36,3.36,0,0,0,3.86-.32,3.65,3.65,0,0,0,1.35-3.61Zm18,0a3.67,3.67,0,0,0,1.66,3.8,3.35,3.35,0,0,0,3.91-.09A3.69,3.69,0,0,0,45,15.46Zm-28.9,0H1.85a3.69,3.69,0,0,0,1.73,3.81,3.3,3.3,0,0,0,3.74,0A3.6,3.6,0,0,0,8.94,15.47Zm9-1.87V10.27H10.82V13.6Zm10.86,0H36v-3.3H28.83ZM27,10.28h-7.1v3.3H27Zm10.88,3.3H45c0-.69,0-1.35,0-2a1.18,1.18,0,0,0-1.23-1.3c-1.93,0-3.87,0-5.8,0,0,0,0,0-.1.06Zm-28.92,0V10.25H3.42a2.64,2.64,0,0,0-.63.06,1,1,0,0,0-.86.91c-.05.78,0,1.57,0,2.37ZM33.86,1.85c1.19,2.19,2.33,4.3,3.49,6.4a.57.57,0,0,0,.42.16c1.23,0,2.46,0,3.7,0,.09,0,.19,0,.29,0s0-.1,0-.12c-1.6-2-3.2-4-4.83-5.95a1.24,1.24,0,0,0-.81-.44C35.37,1.8,34.66,1.85,33.86,1.85ZM13,1.83c-.71,0-1.32,0-1.92,0a1.47,1.47,0,0,0-1.22.59C8.36,4.26,6.89,6.09,5.43,7.92l-.33.44a.88.88,0,0,0,.17.06c1.26,0,2.53,0,3.79,0a.69.69,0,0,0,.45-.34c.89-1.58,1.76-3.17,2.63-4.75C12.39,2.85,12.64,2.39,13,1.83Z"/><path class="cls-1" d="M27.71,33.12a4,4,0,0,1,.62.15A.9.9,0,0,1,27.92,35c-.93,0-1.86,0-2.78,0H21c-.75,0-1.14-.3-1.17-.86s.33-.91,1.12-1V27.32c0-.79.32-1.11,1.1-1.12H26.6c.81,0,1.11.31,1.11,1.15v5.77Zm-1.84-5.06H22.79v5.08h3.08Z"/><path class="cls-1" d="M39,33.16a1,1,0,0,1,1.05.56A.89.89,0,0,1,39.28,35c-2.42,0-4.84,0-7.26,0a.9.9,0,0,1-.9-.86.92.92,0,0,1,.76-.94l.38,0V27.32c0-.8.3-1.12,1.1-1.12h4.57c.79,0,1.1.32,1.1,1.11C39,29.24,39,31.17,39,33.16Zm-1.86,0V28.06H34.12v5.09Z"/><path class="cls-1" d="M43.21,29.12a.89.89,0,0,1,.92.87.91.91,0,0,1-.92.93.9.9,0,0,1,0-1.8Z"/><path class="cls-1" d="M11.15,33.73a.91.91,0,0,1-.92-.92.92.92,0,0,1,.93-.87.87.87,0,0,1,.89.89A.92.92,0,0,1,11.15,33.73Z"/></g></g></svg>