<svg xmlns="http://www.w3.org/2000/svg" viewBox="0 0 52.49 45.53"><defs><style>.cls-1{fill:#ca9e66;}</style></defs><g id="Calque_2" data-name="Calque 2"><g id="Calque_1-2" data-name="Calque 1"><path class="cls-1" d="M52.49,17.42c-.1.47-.18.94-.29,1.4a9.69,9.69,0,0,1-9,7.34c-.84,0-1.67,0-2.51,0a.57.57,0,0,0-.67.49C38.9,30.3,37.82,34,36.69,37.58a10.57,10.57,0,0,1-8.75,7.79,10.75,10.75,0,0,1-12-7.48c-1.15-3.72-2.26-7.44-3.36-11.17-.14-.46-.34-.56-.78-.56a16.41,16.41,0,0,1-4.58-.32A9.74,9.74,0,0,1,0,16.56V14.35H6.81c.05-.83,0-1.62.15-2.39a8.83,8.83,0,0,1,9.11-7.47,2.6,2.6,0,0,1,.56,0,.64.64,0,0,0,.69-.29,11.55,11.55,0,0,1,17.83,0,.78.78,0,0,0,.77.33,8.84,8.84,0,0,1,9.53,7,26.67,26.67,0,0,1,.27,2.83h6.77Zm-20,0,.67.46a5.72,5.72,0,0,0,3,1.22,5.6,5.6,0,0,0,5.69-3,5.45,5.45,0,0,0-.47-6.34,5.6,5.6,0,0,0-6-2.12c-.43.08-.93.38-1.26.24s-.51-.68-.75-1a8.47,8.47,0,0,0-14.2,0c-.24.36-.4.9-.72,1s-.83-.13-1.26-.23A5.82,5.82,0,1,0,19,18.21c.36-.24.72-.68,1.06-.66s.72.46,1.07.73a8.42,8.42,0,0,0,9.77.39C31.41,18.31,31.92,17.88,32.48,17.47ZM14.4,22.17c0,.19.07.34.12.48q2.11,7.08,4.26,14.15a7.77,7.77,0,0,0,14.95,0l4.23-14c0-.17.08-.34.13-.53a9,9,0,0,1-5-.74.87.87,0,0,0-.92,0,11.25,11.25,0,0,1-11.06.38,2.44,2.44,0,0,0-2.38-.15A7.84,7.84,0,0,1,14.4,22.17ZM41.08,23c4.15.6,8.13-2.13,8.21-5.62-1.46,0-2.93,0-4.39,0a.54.54,0,0,0-.37.28A9.21,9.21,0,0,1,42,20.56a.75.75,0,0,0-.26.3C41.51,21.57,41.31,22.29,41.08,23ZM3.19,17.42c.3,3.65,4.48,6.48,8.21,5.6-.21-.74-.42-1.47-.66-2.2a.82.82,0,0,0-.27-.29A9.1,9.1,0,0,1,8,17.72c-.07-.13-.23-.29-.36-.29C6.15,17.41,4.68,17.42,3.19,17.42Z"/><path class="cls-1" d="M26.31,40.22h-.12a1.47,1.47,0,0,1-1.47-1.46v0A2.58,2.58,0,0,0,23.81,37l-.75-.58a1.47,1.47,0,0,1-.3-2.07l.07-.09a1.47,1.47,0,0,1,2.07-.3c.33.25.65.49,1,.75a.5.5,0,0,0,.75,0c.32-.26.64-.51,1-.76a1.48,1.48,0,0,1,2.07.3l.07.1a1.47,1.47,0,0,1-.28,2.06c-.42.33-.84.64-1.27.94a.87.87,0,0,0-.41.85c0,.19,0,.38,0,.57A1.48,1.48,0,0,1,26.31,40.22Z"/></g></g></svg>