<svg xmlns="http://www.w3.org/2000/svg" viewBox="0 0 53.08 52.98"><defs><style>.cls-1{fill:#ca9e66;}</style></defs><g id="Calque_2" data-name="Calque 2"><g id="Calque_1-2" data-name="Calque 1"><path class="cls-1" d="M0,20.9v-.62a9,9,0,0,1,.74-.77c2.31-1.86,4.64-3.71,7-5.56.62-.5,1.22-1,1.86-1.48a1,1,0,0,1,1.7.65,1.15,1.15,0,0,1-.53,1.06L6.32,17.7,2.5,20.75l2.32,2.89.58-.44L25.58,7.08c.81-.64,1.11-.65,1.91,0l20.1,16,.66.52,2.32-2.9L50,20.32,28,2.68a1.93,1.93,0,0,0-2.83,0L18.28,8.14a1.05,1.05,0,0,1-1.6,0A1.07,1.07,0,0,1,17,6.53c2.08-1.66,4.16-3.3,6.23-5A6.89,6.89,0,0,1,25.92,0h1.24a6.15,6.15,0,0,1,2.26,1.19c3,2.42,6,4.81,9,7.21l.52.4V5.75c0-.92.36-1.28,1.29-1.29h4c1,0,1.33.37,1.33,1.36,0,2.58,0,5.16,0,7.75a1,1,0,0,0,.43.91c2.1,1.65,4.18,3.32,6.27,5a9.86,9.86,0,0,1,.78.8v.62c-1.28,1.6-2.54,3.21-3.83,4.81a1,1,0,0,1-1.55.15l-1-.8a2,2,0,0,0,0,.26q0,7.11,0,14.22a.67.67,0,0,0,.24.45,4.8,4.8,0,0,1,.65,7.63C46.1,49.1,44.63,50.56,43.16,52A2.77,2.77,0,0,1,39,52c-1.29-1.28-2.54-2.59-3.86-3.83A5.55,5.55,0,0,1,33,43.87c-.45-.09-.87-.21-1.29-.25a.75.75,0,0,0-.56.19,5.87,5.87,0,0,1-9.17,0,.67.67,0,0,0-.51-.19q-2.31.42-4.62.9a4.58,4.58,0,0,0-3.76,4.61c0,.91,0,1.83,0,2.74a1,1,0,1,1-2.07,0c0-1.27,0-2.53,0-3.84H7.84c-1.09,0-1.41-.32-1.41-1.42V25c-.41.31-.72.57-1,.82a1,1,0,0,1-1.55-.15C2.54,24.12,1.27,22.5,0,20.9ZM41.07,40.46a5.1,5.1,0,0,1,3.51-1.25v-.67c0-4.84,0-9.69,0-14.53a1.18,1.18,0,0,0-.49-1q-7.77-6.16-15.51-12.36L26.56,9l-.14.08q-8.8,7-17.6,14.06a1.05,1.05,0,0,0-.31.69q0,10.8,0,21.62c0,.15,0,.3,0,.49,1,0,1.9,0,2.82,0a.59.59,0,0,0,.61-.35,6.54,6.54,0,0,1,4.4-3.09l4.57-.91a2.91,2.91,0,0,0,1.84-1.12l-.49-.23a10.23,10.23,0,0,1-5.93-9.65A3,3,0,0,0,16,28.66a1.94,1.94,0,0,1-.21-1c0-.62,0-1.24,0-1.86A8.73,8.73,0,0,1,22,17.58a17.2,17.2,0,0,1,4.58-.32,6.72,6.72,0,0,1,5.32,2.45,1.89,1.89,0,0,0,.52.41,7.43,7.43,0,0,1,4.45,7c0,1.32-.11,2.65-.17,4a10.07,10.07,0,0,1-6,9.2c-.11.05-.22.13-.35.2l.15.2a4.44,4.44,0,0,0,2.88,1.11c.09,0,.22-.12.3-.22a11.06,11.06,0,0,1,.81-1A4.87,4.87,0,0,1,41.07,40.46ZM29.62,25.27a8.88,8.88,0,0,1-3.84.44,5.22,5.22,0,0,0-4.71,2.59,4.32,4.32,0,0,1-.61.9,7.22,7.22,0,0,1-1.17.89c-.26.16-.7.15-.83.36s0,.64,0,1,0,.42,0,.62a8.13,8.13,0,0,0,16.16-1.76A7.21,7.21,0,0,1,29.62,25.27Zm-4.14-6v0h-1a6.52,6.52,0,0,0-5.78,3.31c-1,1.57-.92,3.32-.86,5.06a.59.59,0,0,0,.36.43A.74.74,0,0,0,18.8,28a6.17,6.17,0,0,0,.63-.94,7,7,0,0,1,5-3.26,23,23,0,0,1,3-.11,3.19,3.19,0,0,0,3-1.92.56.56,0,0,0-.11-.73,4.5,4.5,0,0,0-2.57-1.54A21.48,21.48,0,0,0,25.48,19.28ZM39.83,49.85c-.26-1-.5-1.84-.74-2.74a1.08,1.08,0,0,1,.78-1.49l1.22-.47c-.21-.65-.43-1.24-.58-1.86a2.58,2.58,0,0,0-1-1.4,2.76,2.76,0,0,0-3.68.24,2.62,2.62,0,0,0-.18,3.61C37,47.15,38.4,48.46,39.83,49.85Zm2.2.21c1.51-1.47,3-2.85,4.43-4.34a2.63,2.63,0,0,0-.22-3.61,2.77,2.77,0,0,0-3.6-.27.52.52,0,0,0-.23.68c.33.95.63,1.9.93,2.85a1,1,0,0,1-.67,1.4l-1.37.53Zm1.51-37.59V6.83c0-.08,0-.16,0-.27H41c0,1.26,0,2.5,0,3.73a.47.47,0,0,0,.16.3ZM29.39,42.61c-.37-.47-.71-.94-1.08-1.39a.53.53,0,0,0-.35-.14H25.13a.51.51,0,0,0-.35.12c-.38.46-.73.94-1.09,1.41A3.73,3.73,0,0,0,29.39,42.61ZM34.8,28.16c.21-2.61-.8-4.92-2.43-5.65a4.62,4.62,0,0,1-.49.84,1.33,1.33,0,0,0-.21,1.48A5.13,5.13,0,0,0,34.8,28.16Z"/><path class="cls-1" d="M14.87,10.36a1,1,0,0,1-1,1,1,1,0,0,1-1-1,1,1,0,1,1,2,0Z"/><path class="cls-1" d="M28.77,35c-.23.3-.38.69-.66.8a1.36,1.36,0,0,1-1.05,0c-.39-.21-.65-.28-1,0a1,1,0,0,1-1.39-.17,1.06,1.06,0,0,1,.1-1.41,2.57,2.57,0,0,1,3.55,0A4.37,4.37,0,0,1,28.77,35Z"/></g></g></svg>