<svg xmlns="http://www.w3.org/2000/svg" viewBox="0 0 50.36 50.37"><defs><style>.cls-1{fill:#ca9e66;}</style></defs><g id="Calque_2" data-name="Calque 2"><g id="Calque_1-2" data-name="Calque 1"><g id="Groupe_22" data-name="Groupe 22"><path id="Tracé_221" data-name="Tracé 221" class="cls-1" d="M45,17.73H41.84a1.24,1.24,0,0,1-1.36-1.12v-.13c0-.7-.11-1.38-.22-2A17.22,17.22,0,0,0,32.58,2.23,13,13,0,0,0,22.18.38a15.12,15.12,0,0,0-9.6,7.26,18.37,18.37,0,0,0-2.67,8.79,1.28,1.28,0,0,1-1.23,1.33H5A4.15,4.15,0,0,0,2.11,19a6.76,6.76,0,0,0-1.84,6.8C1.08,29.4,2,33.38,3.11,38.27c.16.69.31,1.37.46,2,.46,2.07.94,4.21,1.52,6.26a5.1,5.1,0,0,0,5.09,3.78c3.52,0,7.09,0,10.55,0H40.3a4.81,4.81,0,0,0,2.92-.88,6.24,6.24,0,0,0,2.37-3.86q1.78-7.8,3.55-15.6l1-4.25a7.06,7.06,0,0,0-.68-5.34A4.81,4.81,0,0,0,45,17.73Zm-32.45-.9a14.51,14.51,0,0,1,.68-4.18,14.68,14.68,0,0,1,5.67-8,11.13,11.13,0,0,1,13.47.6,15.55,15.55,0,0,1,5.54,11.34,1.22,1.22,0,0,1,0,.33.25.25,0,0,1,0,.07l-.1.74H12.51Zm35.22,7.29c-.45,2.16-1,4.7-1.56,7.2-1.15,5.12-2.12,9.39-3.05,13.45a8,8,0,0,1-.69,1.78,2.21,2.21,0,0,1-2.06,1.18H10.25a2.5,2.5,0,0,1-2.68-1.94c-.42-1.48-.76-3-1.1-4.47l-.06-.25C5.16,35.56,3.9,30,2.84,25.28a5.88,5.88,0,0,1,0-3.17,2.3,2.3,0,0,1,2.28-1.77H44.91a2.52,2.52,0,0,1,2.84,2.14,3,3,0,0,1,0,.42,3.84,3.84,0,0,1-.05,1.22Z"/><path id="Tracé_222" data-name="Tracé 222" class="cls-1" d="M36.74,34.47V27.88a1.35,1.35,0,0,0-1.34-1.51,1.17,1.17,0,0,0-.7.23,1.38,1.38,0,0,0-.57,1.15c0,2,0,3.94,0,5.87v7.55a1.3,1.3,0,0,0,1,1.32,1.25,1.25,0,0,0,1.09-.22,1.5,1.5,0,0,0,.54-1.22c0-1.53,0-3.09,0-4.6C36.74,35.78,36.74,35.12,36.74,34.47Z"/><path id="Tracé_223" data-name="Tracé 223" class="cls-1" d="M14.43,26.37h0a1.24,1.24,0,0,0-.88.35,1.47,1.47,0,0,0-.41,1.06c0,3.78,0,7.63,0,11.35v2a1.32,1.32,0,0,0,.42,1.06A1.22,1.22,0,0,0,15,42.4a1.17,1.17,0,0,0,.77-1.18c0-1.61,0-3.25,0-4.84V27.85a1.32,1.32,0,0,0-1.15-1.47Z"/><path id="Tracé_224" data-name="Tracé 224" class="cls-1" d="M26.22,27.87a2.09,2.09,0,0,0-.33-1,1.08,1.08,0,0,0-.93-.47,1.55,1.55,0,0,0-.43.07,1.32,1.32,0,0,0-.9,1.34c0,1,0,2.09,0,3.11V41a1.31,1.31,0,0,0,.82,1.42,1.24,1.24,0,0,0,1.18-.08,1.37,1.37,0,0,0,.61-1.17c0-1.55,0-3.13,0-4.67V32.71C26.25,31.12,26.25,29.48,26.22,27.87Z"/></g></g></g></svg>