<svg xmlns="http://www.w3.org/2000/svg" viewBox="0 0 33.68 46.87"><defs><style>.cls-1{fill:#ca9e66;}</style></defs><g id="Calque_2" data-name="Calque 2"><g id="Calque_1-2" data-name="Calque 1"><g id="Groupe_20" data-name="Groupe 20"><path id="Tracé_216" data-name="Tracé 216" class="cls-1" d="M17.21,0a2.75,2.75,0,0,1,1.3,1.15c2.87,4.37,5.8,8.71,8.62,13.12a57.75,57.75,0,0,1,5.22,9.94,15.2,15.2,0,0,1,1.27,7.58A16.85,16.85,0,0,1,27.1,43.34a16.17,16.17,0,0,1-8.39,3.42A16.53,16.53,0,0,1,8.46,44.62a16.45,16.45,0,0,1-7.07-7.85A14.79,14.79,0,0,1,.8,25.72a50,50,0,0,1,3.72-8c2.82-5,6-9.7,9.27-14.42.46-.67.91-1.34,1.32-2A2.77,2.77,0,0,1,16.48,0Zm-.35,4.61-.17.21c-2.43,3.69-4.9,7.35-7.28,11.08a58.74,58.74,0,0,0-4.85,9,12.78,12.78,0,0,0-1.1,7.26A13.5,13.5,0,0,0,16.12,43.52a13.4,13.4,0,0,0,13.63-9.38,11.15,11.15,0,0,0,.14-7.06,37.71,37.71,0,0,0-3-6.74c-2.6-4.74-5.65-9.19-8.63-13.68l-1.38-2Z"/><path id="Tracé_217" data-name="Tracé 217" class="cls-1" d="M28.23,30.85a11.21,11.21,0,0,1-5.51,9,1.67,1.67,0,0,1-2.33-.32,2,2,0,0,1-.12-.19,1.64,1.64,0,0,1,.55-2.27L21,37a8.06,8.06,0,0,0,3.88-5.46,8.15,8.15,0,0,0,.15-1c.12-1.1.83-1.8,1.75-1.7a1.67,1.67,0,0,1,1.52,1.81Z"/></g></g></g></svg>