<?xml version="1.0" encoding="UTF-8"?>
<svg id="Calque_2" data-name="Calque 2" xmlns="http://www.w3.org/2000/svg" viewBox="0 0 353.55 311.23">
  <defs>
    <style>
      .cls-1 {
        fill: #ca9e66;
        stroke-width: 0px;
      }
    </style>
  </defs>
  <g id="Calque_1-2" data-name="Calque 1">
    <g>
      <path class="cls-1" d="M157.51,57.88c-7.2-14.12-6.01-28.39-2.84-42.41C157.06,4.85,166.87-.53,179.62.04c10.4.47,19.68,7.34,21.09,17.29,1.91,13.49,2.87,27.17-3.08,40.46,1.95.47,3.66,1.06,5.43,1.29,15.52,2.07,24.27,11.3,27.73,26.13,4.34,18.6,8.67,37.21,12.97,55.82,1.5,6.48,2.62,13.05,4.44,19.43,2.59,9.06-4.12,19.77-12.44,22.01-8.54,2.29-16.74-2.87-19.98-12.89-2.02-6.23-3.81-12.54-6.65-18.6.65,9.18,1.26,18.37,1.96,27.55,2.23,29.48,4.49,58.96,6.75,88.44.14,1.83,0,3.78.62,5.43.54,1.4,1.86,3.33,3.07,3.52,10.23,1.58,18.11,12.05,19.1,22.27.75,7.81-3.17,12.63-10.94,12.81-10.65.25-21.32.25-31.98,0-8.16-.19-12.76-4.31-13.71-12.33-1.92-16.19-3.52-32.42-5.27-48.62-.34-3.11-.79-6.21-1.74-9.28-2.01,18.84-3.9,37.69-6.08,56.51-1.11,9.6-6.41,13.93-16.17,13.94-9.32,0-18.65.02-27.97,0-9.63-.03-13.71-4.77-12.35-14.28,1.57-10.95,7.93-18.28,18.62-20.79,3.18-.75,3.3-2.72,3.49-5.08,1.35-17.26,2.79-34.51,4.04-51.78,1.52-21.09,2.88-42.19,4.29-63.29.06-.91,0-1.84-.7-2.87-2.08,6.01-4.17,12.02-6.25,18.03-3.13,9.06-10.38,13.38-18.72,11.15-9.05-2.42-14.92-11.24-12.97-20.14,4.17-18.98,8.56-37.91,12.9-56.85,1.7-7.44,3.37-14.89,5.32-22.27,3.62-13.66,12.68-21.44,26.51-23.84,2.12-.37,4.23-.84,6.56-1.31Z"/>
      <path class="cls-1" d="M47.45,286.11c13.91,3.9,27.43,7.7,41.6,11.68,2.72-9.81,5.31-19.19,7.93-28.55,3.58-12.79,7.14-25.58,10.8-38.35,2.01-6.99.95-13.51-2.54-19.73-12.71-22.61-25.43-45.2-38.17-67.79-3.02-5.36-4.46-5.54-8.91-1.3-5.79,5.51-7.33,15-3.29,22.61,4.83,9.1,9.96,18.04,14.95,27.06.8,1.45,1.51,2.95,2.27,4.43,1.76,3.42,1.61,6.65-1.92,8.65-3.65,2.07-6.76.88-8.82-2.76-5.23-9.27-10.22-18.68-15.68-27.81-8.05-13.45-7.83-25.95,1.52-39.05,3.98-5.58,5.07-13.21,7.53-19.89.85-2.32,1.32-5.13,2.94-6.72,1.48-1.46,4.62-2.61,6.4-2.02,1.75.58,3.89,3.58,3.8,5.41-.24,4.56-1.66,9.06-2.69,13.98,7.06,1.62,10.77,7.03,14.08,12.98,12.22,21.95,24.55,43.84,36.81,65.76,5.37,9.6,6.76,19.73,3.78,30.37-6.12,21.91-12.19,43.84-18.41,65.73-2.63,9.26-7.1,11.87-16.41,9.4-13.63-3.63-27.22-7.45-40.76-11.43-9.12-2.68-11.51-7.3-8.99-16.68,1.98-7.38,3.93-14.78,6.29-22.04,2.11-6.5,1.14-12.18-2.26-18.08-11.04-19.17-21.82-38.48-32.5-57.85-2.23-4.04-3.91-8.46-5.31-12.87-1.95-6.11-2-12.17-.16-18.59,9.45-32.87,18.72-65.79,27.61-98.82,2.77-10.27,14.08-16.25,24.29-12.91,18.24,5.98,28.92,26.31,22.98,44.45-1.6,4.9-4.5,7.03-8.22,6.04-3.72-.99-5.14-4.3-4.02-9.38,2.88-13.06-.98-22.26-11.66-27.81-6.62-3.44-9.64-2.26-11.75,5.08-6,20.9-11.87,41.84-17.77,62.77-2.8,9.91-5.48,19.85-8.35,29.74-2.76,9.5-1.41,18.31,3.48,26.87,11.3,19.78,22.39,39.68,33.62,59.5,4.35,7.67,5.23,15.55,2.57,24.02-2.39,7.6-4.31,15.34-6.69,23.89Z"/>
      <path class="cls-1" d="M264.13,297.84c14.01-3.93,27.72-7.78,41.79-11.72-2.3-8.27-4.29-16.11-6.67-23.84-2.72-8.83-1.56-16.92,3.04-24.93,11.18-19.47,22.01-39.14,33.13-58.64,4.87-8.55,6.15-17.33,3.45-26.86-8.65-30.51-17.13-61.06-25.74-91.58-2.4-8.53-5.95-9.88-13.41-5.36-8.75,5.3-12.63,13.55-11.08,23.71.25,1.64.8,3.23,1.02,4.87.51,3.65-.3,6.8-4.28,7.9-3.95,1.09-6.84-.91-7.58-4.57-1.09-5.48-2.5-11.28-1.77-16.67,1.99-14.61,10.45-24.64,24.57-29.26,10.67-3.49,20.59,2.21,23.61,12.94,9.4,33.42,18.85,66.82,28.23,100.24,2.92,10.38-.36,19.84-5.2,28.72-10.99,20.15-22.27,40.15-33.63,60.1-3,5.27-3.83,10.34-1.95,16.19,2.43,7.59,4.36,15.35,6.42,23.05,2.53,9.47-.04,14.17-9.49,16.88-13.25,3.8-26.53,7.48-39.84,11.08-9.73,2.63-14.26-.06-17.01-9.85-4.35-15.51-8.67-31.04-13.02-46.55-1.53-5.44-3.04-10.88-4.69-16.28-3.65-11.98-2.21-23.28,3.95-34.16,12.38-21.86,24.62-43.81,36.9-65.72,3.01-5.37,6.76-9.91,13.35-11.63-.95-4.16-1.93-8.13-2.75-12.13-.72-3.48.06-6.48,3.89-7.47,3.82-.99,6.52.78,7.8,4.42,1.05,2.97,1.55,6.15,2.75,9.05,2.66,6.4,5.04,13.02,8.56,18.94,5.53,9.28,7.41,18.78,2.56,28.5-5.93,11.89-12.62,23.41-19.18,34.97-2.23,3.93-6.17,4.69-9.29,2.24-2.8-2.19-3.08-4.96-1.41-7.99,5.53-10.04,11.1-20.05,16.59-30.11,5.13-9.39,3.51-19.26-3.79-25.36-3.06-2.55-5.02-2.43-7.02,1.17-13.13,23.52-26.4,46.97-39.53,70.5-3.34,5.98-3.51,12.4-1.7,18.9,5.39,19.36,10.83,38.7,16.24,58.06.74,2.66,1.41,5.35,2.17,8.25Z"/>
    </g>
  </g>
</svg>