<svg xmlns="http://www.w3.org/2000/svg" viewBox="0 0 41.97 44.55"><defs><style>.cls-1{fill:#ca9e66;}</style></defs><g id="Calque_2" data-name="Calque 2"><g id="Calque_1-2" data-name="Calque 1"><path class="cls-1" d="M36.21,0a1.55,1.55,0,0,1,1,1.66q0,19.81,0,39.63v.65h3.21A2.45,2.45,0,0,1,41,42,1.27,1.27,0,0,1,42,43.4a1.31,1.31,0,0,1-1.19,1.14H1.54c-.93,0-1.5-.47-1.54-1.24a1.29,1.29,0,0,1,1.36-1.37H4.73v-.61q0-19.83,0-39.67A1.55,1.55,0,0,1,5.76,0ZM34.59,41.92V2.63H7.37V41.91h6.56V32c0-1,.48-1.53,1.5-1.53q5.55,0,11.09,0A1.33,1.33,0,0,1,28,32v10Zm-18-8.86v8.85H25.4V33.06Z"/><path class="cls-1" d="M15,14.78h-3a1.33,1.33,0,0,1-1.45-1.43c0-2.06,0-4.11,0-6.17a1.32,1.32,0,0,1,1.42-1.41h6.17a1.33,1.33,0,0,1,1.43,1.44v6.13a1.34,1.34,0,0,1-1.44,1.44ZM13.11,8.4v3.74h3.73V8.4Z"/><path class="cls-1" d="M27,14.78h-3a1.33,1.33,0,0,1-1.44-1.43q0-3.09,0-6.18a1.31,1.31,0,0,1,1.42-1.4h6.17a1.32,1.32,0,0,1,1.42,1.41q0,3.08,0,6.17a1.33,1.33,0,0,1-1.44,1.43Zm1.89-2.64V8.41H25.12v3.73Z"/><path class="cls-1" d="M19.49,22.44v3A1.33,1.33,0,0,1,18,26.92H11.93a1.32,1.32,0,0,1-1.46-1.46V19.38a1.33,1.33,0,0,1,1.46-1.46h6.12a1.32,1.32,0,0,1,1.44,1.44ZM13.1,20.55v3.73h3.75V20.55Z"/><path class="cls-1" d="M31.5,22.4v3A1.35,1.35,0,0,1,30,26.92H24a1.34,1.34,0,0,1-1.49-1.51q0-3,0-6a1.34,1.34,0,0,1,1.5-1.5h6a1.33,1.33,0,0,1,1.47,1.48C31.5,20.4,31.5,21.4,31.5,22.4Zm-2.65,1.89V20.57H25.12v3.72Z"/></g></g></svg>