<svg xmlns="http://www.w3.org/2000/svg" viewBox="0 0 55 49.92"><defs><style>.cls-1{fill:#ca9e66;}</style></defs><g id="Calque_2" data-name="Calque 2"><g id="Calque_1-2" data-name="Calque 1"><path class="cls-1" d="M55,9.28c-.07,1-.14,1.92-.22,2.88a35.74,35.74,0,0,1-1.7,9,14.51,14.51,0,0,1-3.75,6.11,10.52,10.52,0,0,1-6.19,2.55,14.13,14.13,0,0,1-8.38-1.47c-.64-.35-1.22-.81-1.87-1.25-.45.79-.93,1.58-1.35,2.4a35.41,35.41,0,0,0-3.6,12.17c-.25,2.17-.33,4.35-.45,6.53-.06,1.09-.45,1.66-1.25,1.68S25,49.36,25,48.23a81.71,81.71,0,0,0-.89-12.3A48.14,48.14,0,0,0,20.73,24c-.1-.21-.21-.41-.29-.58-1,.36-1.89.78-2.85,1a13.92,13.92,0,0,1-10.23-.93A10.54,10.54,0,0,1,3,18.76,23.33,23.33,0,0,1,.57,10.41c-.31-3-.41-6-.57-8.94A1.25,1.25,0,0,1,1.38,0,57.19,57.19,0,0,1,12.54.9a22.56,22.56,0,0,1,7.27,2.66,10.37,10.37,0,0,1,5.12,8.23,14.56,14.56,0,0,1-1,7.47c-.34.78-.86,1.48-1.27,2.23a.76.76,0,0,0-.07.6,47.68,47.68,0,0,1,3.84,12.79c0,.12,0,.25.07.37s.05.09.08.15c.38-1.16.74-2.31,1.15-3.45a32.47,32.47,0,0,1,3.45-6.77.8.8,0,0,0,0-.61,14.7,14.7,0,0,1-.37-11,9.78,9.78,0,0,1,4.28-5,23.12,23.12,0,0,1,8.53-2.91,61.75,61.75,0,0,1,9.89-.7A1.39,1.39,0,0,1,55,6ZM34.36,25.1a16.25,16.25,0,0,0,1.72,1.16,12.14,12.14,0,0,0,7.53,1,7.4,7.4,0,0,0,5.49-3.54,19,19,0,0,0,1.59-3.27A36.06,36.06,0,0,0,52.43,9.63c0-.71,0-1.42,0-2.16a1.9,1.9,0,0,0-.25,0c-2.56.19-5.14.31-7.7.6a20.17,20.17,0,0,0-7,2,8.89,8.89,0,0,0-3.59,3A9.71,9.71,0,0,0,32.49,18a12.55,12.55,0,0,0,.61,4.59l.13-.05.18-.19A28.24,28.24,0,0,1,41,16.21a17.2,17.2,0,0,1,2.11-1,1.22,1.22,0,0,1,1.73.92c.12.59-.14,1-.79,1.36-1.49.85-3,1.66-4.43,2.62A22.88,22.88,0,0,0,34.36,25.1ZM2.51,2.51c0,.26,0,.47,0,.68.12,2,.18,4,.4,6a23.64,23.64,0,0,0,2.23,8.35,8,8,0,0,0,5,4.49,13,13,0,0,0,5.74.28,9.46,9.46,0,0,0,3.41-1.19c-.7-1-1.36-2-2.08-2.95a24.47,24.47,0,0,0-6-5.4,5.11,5.11,0,0,1-.94-.79,1.2,1.2,0,0,1,.08-1.62,1.22,1.22,0,0,1,1.57-.14c.39.26.75.55,1.14.8a26.14,26.14,0,0,1,7.76,7.91c.08.12.18.23.28.36.06-.07.09-.09.1-.12s.11-.19.16-.28a12.39,12.39,0,0,0,.81-8.22A7.35,7.35,0,0,0,19,6a16,16,0,0,0-4.61-2.09,43.82,43.82,0,0,0-11-1.4Z"/></g></g></svg>